<svg xmlns="http://www.w3.org/2000/svg" width="600" height="600" fill="none">
    <g clip-path="url(#clip0_289_2163)">
        <path fill="#0e0e0e" d="M0 0h600v600H0z"/>
        <path fill="url(#paint0_linear_289_2163)" d="M42.02 492.9 0 501.05v-305.6l47.88-8.99 103.05 227.25 105.8-267.85 45.82-8.9-1.66 305.6-41.6 8.1 1.1-220.9L166 468.8l-30.67 5.96L43.14 272z"/>
        <path fill="url(#paint1_linear_289_2163)" d="M317.7 286.67q.27-34.5 11.77-65.1a185 185 0 0 1 31.95-55.48 192 192 0 0 1 46.9-41.4 171 171 0 0 1 57.56-22.52q44.12-8.58 78.8 6.05 35.1 14.55 52.7 51.25l-34.19 19.3q-9.3-18.7-25.12-28.27a84 84 0 0 0-34.19-12.1 113 113 0 0 0-37.28 1.14 124.4 124.4 0 0 0-54.04 24.9q-23.78 19-37.7 48.32-13.94 29.31-14.3 65.57-.02 35.78 13.78 59.7 13.8 23.91 37.6 34.11 23.7 9.8 53.97 3.9 19.32-3.75 38.27-13.98t35.16-27.76q16.14-17.97 26.86-43.6l33.8 5.64q-18.66 49.85-54.33 79.47a181 181 0 0 1-81.14 38.01q-30.68 5.97-57.18-.22a111.4 111.4 0 0 1-46.8-23.18q-20.32-16.98-31.51-43.16-11.28-26.58-11.34-60.6"/>
    </g>
    <defs>
        <linearGradient id="paint0_linear_289_2163" x1="238.1" x2="335.82" y1="42.89" y2="545.62" gradientUnits="userSpaceOnUse">
            <stop offset=".65" stop-color="#fff"/>
            <stop offset="1" stop-color="#ff079c"/>
        </linearGradient>
        <linearGradient id="paint1_linear_289_2163" x1="238.1" x2="335.82" y1="42.89" y2="545.62" gradientUnits="userSpaceOnUse">
            <stop offset=".65" stop-color="#fff"/>
            <stop offset="1" stop-color="#ff079c"/>
        </linearGradient>
        <clipPath id="clip0_289_2163">
            <path fill="#fff" d="M0 0h600v600H0z"/>
        </clipPath>
    </defs>
</svg>